# xmcd
#
# Track frame offsets:
#	150
#	22516
#	42397
#
# Disc length: 795 seconds
#
# Revision: 0
# Processed by: cddbd v1.5.2PL0 Copyright (c) Steve Scherf et al.
# Submitted via: audiograbber 1.83.01
#
DISCID=15031903
DTITLE=Editors - Smokers Outside The Hospital Doors (Single)
DYEAR=2007
DGENRE=Rock
TTITLE0=Smokers Outside The Hospital Doors 
TTITLE1=An Eye For An Eye
TTITLE2=The Picture
EXTD=
EXTT0=
EXTT1=
EXTT2=
PLAYORDER=
